<svg width="212" height="35" viewBox="0 0 212 35" fill="none" xmlns="http://www.w3.org/2000/svg">
<g filter="url(#filter0_d_529_8)">
<path d="M4.025 21V1.4H11.669C13.3863 1.4 14.8517 1.67067 16.065 2.212C17.2783 2.75333 18.2117 3.53733 18.865 4.564C19.5183 5.59067 19.845 6.81333 19.845 8.232C19.845 9.65067 19.5183 10.8733 18.865 11.9C18.2117 12.908 17.2783 13.6827 16.065 14.224C14.8517 14.7653 13.3863 15.036 11.669 15.036H5.565L6.825 13.748V21H4.025ZM17.129 21L12.145 13.888H15.141L20.181 21H17.129ZM6.825 14.028L5.565 12.656H11.585C13.377 12.656 14.7303 12.2733 15.645 11.508C16.5783 10.724 17.045 9.632 17.045 8.232C17.045 6.832 16.5783 5.74933 15.645 4.984C14.7303 4.21867 13.377 3.836 11.585 3.836H5.565L6.825 2.436V14.028ZM31.1727 21.168C29.6794 21.168 28.3541 20.8413 27.1967 20.188C26.0394 19.5347 25.1247 18.6387 24.4527 17.5C23.7807 16.3427 23.4447 15.036 23.4447 13.58C23.4447 12.1053 23.7807 10.7987 24.4527 9.66C25.1247 8.52133 26.0394 7.63467 27.1967 7C28.3541 6.34667 29.6794 6.02 31.1727 6.02C32.6474 6.02 33.9634 6.34667 35.1207 7C36.2967 7.63467 37.2114 8.52133 37.8648 9.66C38.5368 10.78 38.8728 12.0867 38.8728 13.58C38.8728 15.0547 38.5368 16.3613 37.8648 17.5C37.2114 18.6387 36.2967 19.5347 35.1207 20.188C33.9634 20.8413 32.6474 21.168 31.1727 21.168ZM31.1727 18.816C32.1247 18.816 32.9741 18.6013 33.7207 18.172C34.4861 17.7427 35.0834 17.136 35.5127 16.352C35.9421 15.5493 36.1567 14.6253 36.1567 13.58C36.1567 12.516 35.9421 11.6013 35.5127 10.836C35.0834 10.052 34.4861 9.44533 33.7207 9.016C32.9741 8.58667 32.1247 8.372 31.1727 8.372C30.2207 8.372 29.3714 8.58667 28.6247 9.016C27.8781 9.44533 27.2807 10.052 26.8327 10.836C26.3847 11.6013 26.1607 12.516 26.1607 13.58C26.1607 14.6253 26.3847 15.5493 26.8327 16.352C27.2807 17.136 27.8781 17.7427 28.6247 18.172C29.3714 18.6013 30.2207 18.816 31.1727 18.816ZM47.6862 21.168C46.4542 21.168 45.2782 21 44.1582 20.664C43.0569 20.328 42.1889 19.9173 41.5542 19.432L42.6742 17.304C43.3089 17.7333 44.0929 18.0973 45.0262 18.396C45.9595 18.6947 46.9115 18.844 47.8822 18.844C49.1329 18.844 50.0289 18.6667 50.5702 18.312C51.1302 17.9573 51.4102 17.4627 51.4102 16.828C51.4102 16.3613 51.2422 15.9973 50.9062 15.736C50.5702 15.4747 50.1222 15.2787 49.5622 15.148C49.0209 15.0173 48.4142 14.9053 47.7422 14.812C47.0702 14.7 46.3982 14.5693 45.7262 14.42C45.0542 14.252 44.4382 14.028 43.8782 13.748C43.3182 13.4493 42.8702 13.048 42.5342 12.544C42.1982 12.0213 42.0302 11.3307 42.0302 10.472C42.0302 9.576 42.2822 8.792 42.7862 8.12C43.2902 7.448 43.9995 6.93467 44.9142 6.58C45.8475 6.20667 46.9489 6.02 48.2182 6.02C49.1889 6.02 50.1689 6.14133 51.1582 6.384C52.1662 6.608 52.9875 6.93467 53.6222 7.364L52.4742 9.492C51.8022 9.044 51.1022 8.736 50.3742 8.568C49.6462 8.4 48.9182 8.316 48.1902 8.316C47.0142 8.316 46.1369 8.512 45.5582 8.904C44.9795 9.27733 44.6902 9.76267 44.6902 10.36C44.6902 10.864 44.8582 11.256 45.1942 11.536C45.5489 11.7973 45.9969 12.0027 46.5382 12.152C47.0982 12.3013 47.7142 12.432 48.3862 12.544C49.0582 12.6373 49.7302 12.768 50.4022 12.936C51.0742 13.0853 51.6809 13.3 52.2222 13.58C52.7822 13.86 53.2302 14.252 53.5662 14.756C53.9209 15.26 54.0982 15.932 54.0982 16.772C54.0982 17.668 53.8369 18.4427 53.3142 19.096C52.7915 19.7493 52.0542 20.2627 51.1022 20.636C50.1502 20.9907 49.0115 21.168 47.6862 21.168ZM64.9055 21.168C63.3189 21.168 61.9189 20.8413 60.7055 20.188C59.5109 19.5347 58.5775 18.6387 57.9055 17.5C57.2522 16.3613 56.9255 15.0547 56.9255 13.58C56.9255 12.1053 57.2429 10.7987 57.8775 9.66C58.5309 8.52133 59.4175 7.63467 60.5375 7C61.6762 6.34667 62.9549 6.02 64.3735 6.02C65.8109 6.02 67.0802 6.33733 68.1815 6.972C69.2829 7.60667 70.1415 8.50267 70.7575 9.66C71.3922 10.7987 71.7095 12.1333 71.7095 13.664C71.7095 13.776 71.7002 13.9067 71.6815 14.056C71.6815 14.2053 71.6722 14.3453 71.6535 14.476H59.0255V12.544H70.2535L69.1615 13.216C69.1802 12.264 68.9842 11.4147 68.5735 10.668C68.1629 9.92133 67.5935 9.34267 66.8655 8.932C66.1562 8.50267 65.3255 8.288 64.3735 8.288C63.4402 8.288 62.6095 8.50267 61.8815 8.932C61.1535 9.34267 60.5842 9.93067 60.1735 10.696C59.7629 11.4427 59.5575 12.3013 59.5575 13.272V13.72C59.5575 14.7093 59.7815 15.596 60.2295 16.38C60.6962 17.1453 61.3402 17.7427 62.1615 18.172C62.9829 18.6013 63.9255 18.816 64.9895 18.816C65.8669 18.816 66.6602 18.6667 67.3695 18.368C68.0975 18.0693 68.7322 17.6213 69.2735 17.024L70.7575 18.76C70.0855 19.544 69.2455 20.1413 68.2375 20.552C67.2482 20.9627 66.1375 21.168 64.9055 21.168ZM84.1501 21.168C82.9181 21.168 81.7887 20.888 80.7621 20.328C79.7541 19.7493 78.9421 18.9 78.3261 17.78C77.7287 16.66 77.4301 15.26 77.4301 13.58C77.4301 11.9 77.7194 10.5 78.2981 9.38C78.8954 8.26 79.6981 7.42 80.7061 6.86C81.7327 6.3 82.8807 6.02 84.1501 6.02C85.6061 6.02 86.8941 6.33733 88.0141 6.972C89.1341 7.60667 90.0207 8.49333 90.6741 9.632C91.3274 10.752 91.6541 12.068 91.6541 13.58C91.6541 15.092 91.3274 16.4173 90.6741 17.556C90.0207 18.6947 89.1341 19.5813 88.0141 20.216C86.8941 20.8507 85.6061 21.168 84.1501 21.168ZM76.2821 26.432V6.16H78.8581V10.164L78.6901 13.608L78.9701 17.052V26.432H76.2821ZM83.9261 18.816C84.8781 18.816 85.7274 18.6013 86.4741 18.172C87.2394 17.7427 87.8367 17.136 88.2661 16.352C88.7141 15.5493 88.9381 14.6253 88.9381 13.58C88.9381 12.516 88.7141 11.6013 88.2661 10.836C87.8367 10.052 87.2394 9.44533 86.4741 9.016C85.7274 8.58667 84.8781 8.372 83.9261 8.372C82.9927 8.372 82.1434 8.58667 81.3781 9.016C80.6314 9.44533 80.0341 10.052 79.5861 10.836C79.1567 11.6013 78.9421 12.516 78.9421 13.58C78.9421 14.6253 79.1567 15.5493 79.5861 16.352C80.0341 17.136 80.6314 17.7427 81.3781 18.172C82.1434 18.6013 82.9927 18.816 83.9261 18.816ZM104.132 6.02C105.345 6.02 106.409 6.25333 107.324 6.72C108.257 7.18667 108.985 7.896 109.508 8.848C110.031 9.8 110.292 11.004 110.292 12.46V21H107.604V12.768C107.604 11.3307 107.249 10.248 106.54 9.52C105.849 8.792 104.869 8.428 103.6 8.428C102.648 8.428 101.817 8.61467 101.108 8.988C100.399 9.36133 99.848 9.912 99.456 10.64C99.0827 11.368 98.896 12.2733 98.896 13.356V21H96.208V0.223999H98.896V10.164L98.364 9.1C98.8493 8.12933 99.596 7.37333 100.604 6.832C101.612 6.29067 102.788 6.02 104.132 6.02Z" fill="#222222"/>
<path d="M124.858 21V1.4H133.118C135.209 1.4 137.047 1.81067 138.634 2.632C140.239 3.45333 141.481 4.60133 142.358 6.076C143.254 7.55067 143.702 9.25867 143.702 11.2C143.702 13.1413 143.254 14.8493 142.358 16.324C141.481 17.7987 140.239 18.9467 138.634 19.768C137.047 20.5893 135.209 21 133.118 21H124.858ZM127.658 18.564H132.95C134.574 18.564 135.974 18.256 137.15 17.64C138.345 17.024 139.269 16.1653 139.922 15.064C140.575 13.944 140.902 12.656 140.902 11.2C140.902 9.72533 140.575 8.43733 139.922 7.336C139.269 6.23467 138.345 5.376 137.15 4.76C135.974 4.144 134.574 3.836 132.95 3.836H127.658V18.564ZM157.651 21V17.864L157.511 17.276V11.928C157.511 10.7893 157.175 9.912 156.503 9.296C155.85 8.66133 154.86 8.344 153.535 8.344C152.658 8.344 151.799 8.49333 150.959 8.792C150.119 9.072 149.41 9.45467 148.831 9.94L147.711 7.924C148.476 7.308 149.391 6.84133 150.455 6.524C151.538 6.188 152.667 6.02 153.843 6.02C155.878 6.02 157.446 6.51467 158.547 7.504C159.648 8.49333 160.199 10.0053 160.199 12.04V21H157.651ZM152.779 21.168C151.678 21.168 150.707 20.9813 149.867 20.608C149.046 20.2347 148.411 19.7213 147.963 19.068C147.515 18.396 147.291 17.64 147.291 16.8C147.291 15.9973 147.478 15.2693 147.851 14.616C148.243 13.9627 148.868 13.44 149.727 13.048C150.604 12.656 151.78 12.46 153.255 12.46H157.959V14.392H153.367C152.023 14.392 151.118 14.616 150.651 15.064C150.184 15.512 149.951 16.0533 149.951 16.688C149.951 17.416 150.24 18.004 150.819 18.452C151.398 18.8813 152.2 19.096 153.227 19.096C154.235 19.096 155.112 18.872 155.859 18.424C156.624 17.976 157.175 17.3227 157.511 16.464L158.043 18.312C157.688 19.1893 157.063 19.8893 156.167 20.412C155.271 20.916 154.142 21.168 152.779 21.168ZM166.013 21V6.16H168.589V10.192L168.337 9.184C168.748 8.15733 169.439 7.37333 170.409 6.832C171.38 6.29067 172.575 6.02 173.993 6.02V8.624C173.881 8.60533 173.769 8.596 173.657 8.596C173.564 8.596 173.471 8.596 173.377 8.596C171.94 8.596 170.801 9.02533 169.961 9.884C169.121 10.7427 168.701 11.984 168.701 13.608V21H166.013ZM178.146 21V0.223999H180.834V21H178.146ZM199.59 17.332V5.068H201.942V17.332H199.59ZM194.494 12.32V10.108H207.038V12.32H194.494Z" fill="#5F9DF7"/>
</g>
<defs>
<filter id="filter0_d_529_8" x="0.0253906" y="0.224609" width="211.013" height="34.207" filterUnits="userSpaceOnUse" color-interpolation-filters="sRGB">
<feFlood flood-opacity="0" result="BackgroundImageFix"/>
<feColorMatrix in="SourceAlpha" type="matrix" values="0 0 0 0 0 0 0 0 0 0 0 0 0 0 0 0 0 0 127 0" result="hardAlpha"/>
<feOffset dy="4"/>
<feGaussianBlur stdDeviation="2"/>
<feComposite in2="hardAlpha" operator="out"/>
<feColorMatrix type="matrix" values="0 0 0 0 0 0 0 0 0 0 0 0 0 0 0 0 0 0 0.25 0"/>
<feBlend mode="normal" in2="BackgroundImageFix" result="effect1_dropShadow_529_8"/>
<feBlend mode="normal" in="SourceGraphic" in2="effect1_dropShadow_529_8" result="shape"/>
</filter>
</defs>
</svg>
